<mxfile host="Electron" agent="Mozilla/5.0 (X11; Linux x86_64) AppleWebKit/537.36 (KHTML, like Gecko) draw.io/24.7.17 Chrome/128.0.6613.36 Electron/32.0.1 Safari/537.36" version="24.7.17">
  <diagram name="Page-1" id="z4ePnmX8JLkG3N1GDPOr">
    <mxGraphModel dx="1783" dy="1720" grid="1" gridSize="10" guides="1" tooltips="1" connect="1" arrows="1" fold="1" page="1" pageScale="1" pageWidth="827" pageHeight="1169" math="0" shadow="0">
      <root>
        <mxCell id="0" />
        <mxCell id="1" parent="0" />
        <mxCell id="Fk8QGSgGJ1bhqam2HO4i-20" style="edgeStyle=orthogonalEdgeStyle;rounded=0;orthogonalLoop=1;jettySize=auto;html=1;exitX=0.5;exitY=1;exitDx=0;exitDy=0;entryX=0;entryY=0.5;entryDx=0;entryDy=0;" parent="1" source="Fk8QGSgGJ1bhqam2HO4i-1" target="Fk8QGSgGJ1bhqam2HO4i-3" edge="1">
          <mxGeometry relative="1" as="geometry" />
        </mxCell>
        <mxCell id="Fk8QGSgGJ1bhqam2HO4i-21" style="edgeStyle=orthogonalEdgeStyle;rounded=0;orthogonalLoop=1;jettySize=auto;html=1;exitX=0.5;exitY=1;exitDx=0;exitDy=0;entryX=0;entryY=0.5;entryDx=0;entryDy=0;" parent="1" source="Fk8QGSgGJ1bhqam2HO4i-1" target="Fk8QGSgGJ1bhqam2HO4i-15" edge="1">
          <mxGeometry relative="1" as="geometry" />
        </mxCell>
        <mxCell id="fY-Wzga6seKQwhded4A5-12" style="edgeStyle=orthogonalEdgeStyle;rounded=0;orthogonalLoop=1;jettySize=auto;html=1;exitX=0.5;exitY=1;exitDx=0;exitDy=0;entryX=0;entryY=0.5;entryDx=0;entryDy=0;" edge="1" parent="1" target="fY-Wzga6seKQwhded4A5-7">
          <mxGeometry relative="1" as="geometry">
            <mxPoint x="-360" y="700" as="targetPoint" />
            <mxPoint x="-720" y="240" as="sourcePoint" />
            <Array as="points">
              <mxPoint x="-720" y="540" />
            </Array>
          </mxGeometry>
        </mxCell>
        <mxCell id="fY-Wzga6seKQwhded4A5-16" style="edgeStyle=orthogonalEdgeStyle;rounded=0;orthogonalLoop=1;jettySize=auto;html=1;exitX=0.5;exitY=1;exitDx=0;exitDy=0;entryX=0;entryY=0.5;entryDx=0;entryDy=0;" edge="1" parent="1" source="Fk8QGSgGJ1bhqam2HO4i-1" target="Fk8QGSgGJ1bhqam2HO4i-13">
          <mxGeometry relative="1" as="geometry" />
        </mxCell>
        <mxCell id="fY-Wzga6seKQwhded4A5-17" style="edgeStyle=orthogonalEdgeStyle;rounded=0;orthogonalLoop=1;jettySize=auto;html=1;exitX=0.5;exitY=1;exitDx=0;exitDy=0;entryX=0;entryY=0.5;entryDx=0;entryDy=0;" edge="1" parent="1" source="Fk8QGSgGJ1bhqam2HO4i-1" target="fY-Wzga6seKQwhded4A5-8">
          <mxGeometry relative="1" as="geometry" />
        </mxCell>
        <mxCell id="fY-Wzga6seKQwhded4A5-22" style="edgeStyle=orthogonalEdgeStyle;rounded=0;orthogonalLoop=1;jettySize=auto;html=1;exitX=0.5;exitY=1;exitDx=0;exitDy=0;" edge="1" parent="1" source="Fk8QGSgGJ1bhqam2HO4i-1">
          <mxGeometry relative="1" as="geometry">
            <mxPoint x="-680" y="-20" as="targetPoint" />
            <Array as="points">
              <mxPoint x="-720" y="-20" />
              <mxPoint x="-680" y="-20" />
            </Array>
          </mxGeometry>
        </mxCell>
        <mxCell id="fY-Wzga6seKQwhded4A5-23" style="edgeStyle=orthogonalEdgeStyle;rounded=0;orthogonalLoop=1;jettySize=auto;html=1;exitX=0.5;exitY=1;exitDx=0;exitDy=0;entryX=0;entryY=0.5;entryDx=0;entryDy=0;" edge="1" parent="1" source="Fk8QGSgGJ1bhqam2HO4i-1" target="fY-Wzga6seKQwhded4A5-1">
          <mxGeometry relative="1" as="geometry" />
        </mxCell>
        <mxCell id="fY-Wzga6seKQwhded4A5-24" style="edgeStyle=orthogonalEdgeStyle;rounded=0;orthogonalLoop=1;jettySize=auto;html=1;exitX=0.5;exitY=1;exitDx=0;exitDy=0;entryX=0;entryY=0.5;entryDx=0;entryDy=0;" edge="1" parent="1" source="Fk8QGSgGJ1bhqam2HO4i-1" target="Fk8QGSgGJ1bhqam2HO4i-14">
          <mxGeometry relative="1" as="geometry" />
        </mxCell>
        <mxCell id="fY-Wzga6seKQwhded4A5-25" style="edgeStyle=orthogonalEdgeStyle;rounded=0;orthogonalLoop=1;jettySize=auto;html=1;exitX=0.5;exitY=1;exitDx=0;exitDy=0;entryX=0;entryY=0.5;entryDx=0;entryDy=0;" edge="1" parent="1" source="Fk8QGSgGJ1bhqam2HO4i-1" target="Fk8QGSgGJ1bhqam2HO4i-4">
          <mxGeometry relative="1" as="geometry" />
        </mxCell>
        <mxCell id="Fk8QGSgGJ1bhqam2HO4i-1" value="Homepage&lt;div&gt;&lt;font face=&quot;Courier New&quot;&gt;&lt;b&gt;/&lt;/b&gt;&lt;/font&gt;&lt;/div&gt;" style="rounded=1;whiteSpace=wrap;html=1;" parent="1" vertex="1">
          <mxGeometry x="-800" y="-120" width="160" height="40" as="geometry" />
        </mxCell>
        <mxCell id="fY-Wzga6seKQwhded4A5-26" style="edgeStyle=orthogonalEdgeStyle;rounded=0;orthogonalLoop=1;jettySize=auto;html=1;exitX=1;exitY=0.5;exitDx=0;exitDy=0;entryX=0;entryY=0.5;entryDx=0;entryDy=0;" edge="1" parent="1" source="Fk8QGSgGJ1bhqam2HO4i-2" target="Fk8QGSgGJ1bhqam2HO4i-9">
          <mxGeometry relative="1" as="geometry" />
        </mxCell>
        <mxCell id="fY-Wzga6seKQwhded4A5-27" style="edgeStyle=orthogonalEdgeStyle;rounded=0;orthogonalLoop=1;jettySize=auto;html=1;exitX=1;exitY=0.5;exitDx=0;exitDy=0;entryX=0;entryY=0.5;entryDx=0;entryDy=0;" edge="1" parent="1" source="Fk8QGSgGJ1bhqam2HO4i-2" target="Fk8QGSgGJ1bhqam2HO4i-8">
          <mxGeometry relative="1" as="geometry" />
        </mxCell>
        <mxCell id="fY-Wzga6seKQwhded4A5-28" style="edgeStyle=orthogonalEdgeStyle;rounded=0;orthogonalLoop=1;jettySize=auto;html=1;exitX=1;exitY=0.5;exitDx=0;exitDy=0;entryX=0;entryY=0.5;entryDx=0;entryDy=0;" edge="1" parent="1" source="Fk8QGSgGJ1bhqam2HO4i-2" target="Fk8QGSgGJ1bhqam2HO4i-7">
          <mxGeometry relative="1" as="geometry" />
        </mxCell>
        <mxCell id="fY-Wzga6seKQwhded4A5-40" style="edgeStyle=orthogonalEdgeStyle;rounded=0;orthogonalLoop=1;jettySize=auto;html=1;entryX=0;entryY=0.5;entryDx=0;entryDy=0;dashed=1;fillColor=#6d8764;strokeColor=#3A5431;" edge="1" parent="1" target="Fk8QGSgGJ1bhqam2HO4i-2">
          <mxGeometry relative="1" as="geometry">
            <mxPoint x="-679.6666666666667" y="70" as="targetPoint" />
            <mxPoint x="-680" y="-20" as="sourcePoint" />
          </mxGeometry>
        </mxCell>
        <mxCell id="fY-Wzga6seKQwhded4A5-43" style="edgeStyle=orthogonalEdgeStyle;rounded=0;orthogonalLoop=1;jettySize=auto;html=1;exitX=1;exitY=0.5;exitDx=0;exitDy=0;entryX=0;entryY=0.5;entryDx=0;entryDy=0;" edge="1" parent="1" source="Fk8QGSgGJ1bhqam2HO4i-2" target="fY-Wzga6seKQwhded4A5-42">
          <mxGeometry relative="1" as="geometry" />
        </mxCell>
        <mxCell id="Fk8QGSgGJ1bhqam2HO4i-2" value="AccountHomePage&lt;div&gt;&lt;b style=&quot;font-family: &amp;quot;Courier New&amp;quot;;&quot;&gt;&lt;font style=&quot;font-size: 10px;&quot;&gt;/account&lt;/font&gt;&lt;/b&gt;&lt;br&gt;&lt;/div&gt;" style="rounded=1;whiteSpace=wrap;html=1;" parent="1" vertex="1">
          <mxGeometry x="-600" y="-40" width="160" height="40" as="geometry" />
        </mxCell>
        <mxCell id="fY-Wzga6seKQwhded4A5-31" style="edgeStyle=orthogonalEdgeStyle;rounded=0;orthogonalLoop=1;jettySize=auto;html=1;exitX=1;exitY=0.5;exitDx=0;exitDy=0;entryX=0;entryY=0.5;entryDx=0;entryDy=0;" edge="1" parent="1" source="Fk8QGSgGJ1bhqam2HO4i-3" target="Fk8QGSgGJ1bhqam2HO4i-5">
          <mxGeometry relative="1" as="geometry" />
        </mxCell>
        <mxCell id="Fk8QGSgGJ1bhqam2HO4i-3" value="BandsPage&lt;div&gt;&lt;b style=&quot;font-family: &amp;quot;Courier New&amp;quot;;&quot;&gt;&lt;font style=&quot;font-size: 10px;&quot;&gt;/bands&lt;/font&gt;&lt;/b&gt;&lt;br&gt;&lt;/div&gt;" style="rounded=1;whiteSpace=wrap;html=1;" parent="1" vertex="1">
          <mxGeometry x="-600" y="280" width="160" height="40" as="geometry" />
        </mxCell>
        <mxCell id="Fk8QGSgGJ1bhqam2HO4i-4" value="PreferencesPage&lt;div&gt;&lt;b style=&quot;font-family: &amp;quot;Courier New&amp;quot;;&quot;&gt;&lt;font style=&quot;font-size: 10px;&quot;&gt;/preferences&lt;/font&gt;&lt;/b&gt;&lt;br&gt;&lt;/div&gt;" style="rounded=1;whiteSpace=wrap;html=1;" parent="1" vertex="1">
          <mxGeometry x="-600" y="600" width="160" height="40" as="geometry" />
        </mxCell>
        <mxCell id="fY-Wzga6seKQwhded4A5-10" style="edgeStyle=orthogonalEdgeStyle;rounded=0;orthogonalLoop=1;jettySize=auto;html=1;exitX=0.5;exitY=1;exitDx=0;exitDy=0;entryX=0.5;entryY=0;entryDx=0;entryDy=0;" edge="1" parent="1" source="Fk8QGSgGJ1bhqam2HO4i-5" target="fY-Wzga6seKQwhded4A5-5">
          <mxGeometry relative="1" as="geometry">
            <Array as="points">
              <mxPoint x="-280" y="330" />
              <mxPoint x="-280" y="330" />
            </Array>
          </mxGeometry>
        </mxCell>
        <mxCell id="Fk8QGSgGJ1bhqam2HO4i-5" value="BandDetailPage&lt;div&gt;&lt;b style=&quot;font-family: &amp;quot;Courier New&amp;quot;;&quot;&gt;&lt;font style=&quot;font-size: 10px;&quot;&gt;/bands/detail/:bandName&lt;/font&gt;&lt;/b&gt;&lt;br&gt;&lt;/div&gt;" style="rounded=1;whiteSpace=wrap;html=1;" parent="1" vertex="1">
          <mxGeometry x="-360" y="280" width="160" height="40" as="geometry" />
        </mxCell>
        <mxCell id="fY-Wzga6seKQwhded4A5-41" style="edgeStyle=orthogonalEdgeStyle;rounded=0;orthogonalLoop=1;jettySize=auto;html=1;entryX=0;entryY=0.5;entryDx=0;entryDy=0;dashed=1;fillColor=#e51400;strokeColor=#B20000;" edge="1" parent="1" target="Fk8QGSgGJ1bhqam2HO4i-7">
          <mxGeometry relative="1" as="geometry">
            <mxPoint x="-200" y="-220" as="targetPoint" />
            <mxPoint x="-680" y="-20" as="sourcePoint" />
            <Array as="points">
              <mxPoint x="-680" y="140" />
            </Array>
          </mxGeometry>
        </mxCell>
        <mxCell id="Fk8QGSgGJ1bhqam2HO4i-7" value="LoginPage&lt;div&gt;&lt;b style=&quot;font-family: &amp;quot;Courier New&amp;quot;;&quot;&gt;&lt;font style=&quot;font-size: 10px;&quot;&gt;/account/login&lt;/font&gt;&lt;/b&gt;&lt;br&gt;&lt;/div&gt;" style="rounded=1;whiteSpace=wrap;html=1;" parent="1" vertex="1">
          <mxGeometry x="-360" y="120" width="160" height="40" as="geometry" />
        </mxCell>
        <mxCell id="Fk8QGSgGJ1bhqam2HO4i-8" value="AccountData&lt;div&gt;&lt;b style=&quot;font-family: &amp;quot;Courier New&amp;quot;;&quot;&gt;&lt;font style=&quot;font-size: 10px;&quot;&gt;/account/data&lt;/font&gt;&lt;/b&gt;&lt;br&gt;&lt;/div&gt;" style="rounded=1;whiteSpace=wrap;html=1;" parent="1" vertex="1">
          <mxGeometry x="-360" y="40" width="160" height="40" as="geometry" />
        </mxCell>
        <mxCell id="Fk8QGSgGJ1bhqam2HO4i-9" value="OrdersPage&lt;div&gt;&lt;b style=&quot;font-family: &amp;quot;Courier New&amp;quot;;&quot;&gt;&lt;font style=&quot;font-size: 10px;&quot;&gt;/account/orders&lt;/font&gt;&lt;/b&gt;&lt;br&gt;&lt;/div&gt;" style="rounded=1;whiteSpace=wrap;html=1;" parent="1" vertex="1">
          <mxGeometry x="-360" y="-40" width="160" height="40" as="geometry" />
        </mxCell>
        <mxCell id="Fk8QGSgGJ1bhqam2HO4i-13" value="AdminHome&lt;span style=&quot;background-color: initial;&quot;&gt;Page&lt;/span&gt;&lt;div&gt;&lt;div&gt;&lt;b style=&quot;font-family: &amp;quot;Courier New&amp;quot;;&quot;&gt;&lt;font style=&quot;font-size: 10px;&quot;&gt;/admin&lt;/font&gt;&lt;/b&gt;&lt;br&gt;&lt;/div&gt;&lt;/div&gt;" style="rounded=1;whiteSpace=wrap;html=1;" parent="1" vertex="1">
          <mxGeometry x="-600" y="760" width="160" height="40" as="geometry" />
        </mxCell>
        <mxCell id="Fk8QGSgGJ1bhqam2HO4i-14" value="HelpPage&lt;div&gt;&lt;b style=&quot;font-family: &amp;quot;Courier New&amp;quot;;&quot;&gt;&lt;font style=&quot;font-size: 10px;&quot;&gt;/help&lt;/font&gt;&lt;/b&gt;&lt;br&gt;&lt;/div&gt;" style="rounded=1;whiteSpace=wrap;html=1;" parent="1" vertex="1">
          <mxGeometry x="-600" y="680" width="160" height="40" as="geometry" />
        </mxCell>
        <mxCell id="fY-Wzga6seKQwhded4A5-32" style="edgeStyle=orthogonalEdgeStyle;rounded=0;orthogonalLoop=1;jettySize=auto;html=1;exitX=1;exitY=0.5;exitDx=0;exitDy=0;entryX=0;entryY=0.5;entryDx=0;entryDy=0;" edge="1" parent="1" source="Fk8QGSgGJ1bhqam2HO4i-15" target="Fk8QGSgGJ1bhqam2HO4i-16">
          <mxGeometry relative="1" as="geometry" />
        </mxCell>
        <mxCell id="Fk8QGSgGJ1bhqam2HO4i-15" value="LocationsPage&lt;div&gt;&lt;b style=&quot;font-family: &amp;quot;Courier New&amp;quot;;&quot;&gt;&lt;font style=&quot;font-size: 10px;&quot;&gt;/locations&lt;/font&gt;&lt;/b&gt;&lt;br&gt;&lt;/div&gt;" style="rounded=1;whiteSpace=wrap;html=1;" parent="1" vertex="1">
          <mxGeometry x="-600" y="440" width="160" height="40" as="geometry" />
        </mxCell>
        <mxCell id="fY-Wzga6seKQwhded4A5-9" style="edgeStyle=orthogonalEdgeStyle;rounded=0;orthogonalLoop=1;jettySize=auto;html=1;exitX=0.5;exitY=0;exitDx=0;exitDy=0;entryX=0.5;entryY=1;entryDx=0;entryDy=0;" edge="1" parent="1" source="Fk8QGSgGJ1bhqam2HO4i-16" target="fY-Wzga6seKQwhded4A5-5">
          <mxGeometry relative="1" as="geometry">
            <Array as="points">
              <mxPoint x="-280" y="420" />
              <mxPoint x="-280" y="420" />
            </Array>
          </mxGeometry>
        </mxCell>
        <mxCell id="Fk8QGSgGJ1bhqam2HO4i-16" value="LocationsDetailPage&lt;div&gt;&lt;b style=&quot;font-family: &amp;quot;Courier New&amp;quot;;&quot;&gt;&lt;font style=&quot;font-size: 10px;&quot;&gt;/locations/detail/:name&lt;/font&gt;&lt;/b&gt;&lt;br&gt;&lt;/div&gt;" style="rounded=1;whiteSpace=wrap;html=1;" parent="1" vertex="1">
          <mxGeometry x="-360" y="440" width="160" height="40" as="geometry" />
        </mxCell>
        <mxCell id="fY-Wzga6seKQwhded4A5-30" style="edgeStyle=orthogonalEdgeStyle;rounded=0;orthogonalLoop=1;jettySize=auto;html=1;exitX=1;exitY=0.5;exitDx=0;exitDy=0;entryX=0;entryY=0.5;entryDx=0;entryDy=0;" edge="1" parent="1" source="fY-Wzga6seKQwhded4A5-1" target="fY-Wzga6seKQwhded4A5-5">
          <mxGeometry relative="1" as="geometry" />
        </mxCell>
        <mxCell id="fY-Wzga6seKQwhded4A5-1" value="ConcertsPage&lt;div&gt;&lt;b style=&quot;font-family: &amp;quot;Courier New&amp;quot;;&quot;&gt;&lt;font style=&quot;font-size: 10px;&quot;&gt;/concerts&lt;/font&gt;&lt;/b&gt;&lt;br&gt;&lt;/div&gt;" style="rounded=1;whiteSpace=wrap;html=1;" vertex="1" parent="1">
          <mxGeometry x="-600" y="360" width="160" height="40" as="geometry" />
        </mxCell>
        <mxCell id="fY-Wzga6seKQwhded4A5-3" value="if logged in" style="text;strokeColor=none;align=center;fillColor=none;html=1;verticalAlign=middle;whiteSpace=wrap;rounded=0;" vertex="1" parent="1">
          <mxGeometry x="-680" y="-60" width="80" height="30" as="geometry" />
        </mxCell>
        <mxCell id="fY-Wzga6seKQwhded4A5-4" value="else" style="text;strokeColor=none;align=center;fillColor=none;html=1;verticalAlign=middle;whiteSpace=wrap;rounded=0;" vertex="1" parent="1">
          <mxGeometry x="-690" y="110" width="80" height="30" as="geometry" />
        </mxCell>
        <mxCell id="fY-Wzga6seKQwhded4A5-34" style="edgeStyle=orthogonalEdgeStyle;rounded=0;orthogonalLoop=1;jettySize=auto;html=1;exitX=1;exitY=0.5;exitDx=0;exitDy=0;entryX=1;entryY=0.5;entryDx=0;entryDy=0;" edge="1" parent="1" source="fY-Wzga6seKQwhded4A5-5" target="fY-Wzga6seKQwhded4A5-7">
          <mxGeometry relative="1" as="geometry">
            <Array as="points">
              <mxPoint x="-160" y="380" />
              <mxPoint x="-160" y="540" />
            </Array>
          </mxGeometry>
        </mxCell>
        <mxCell id="fY-Wzga6seKQwhded4A5-5" value="ConcertsBookingPage&lt;div&gt;&lt;b style=&quot;font-family: &amp;quot;Courier New&amp;quot;;&quot;&gt;&lt;font style=&quot;font-size: 10px;&quot;&gt;/concerts/booking/:id&lt;/font&gt;&lt;/b&gt;&lt;br&gt;&lt;/div&gt;" style="rounded=1;whiteSpace=wrap;html=1;" vertex="1" parent="1">
          <mxGeometry x="-360" y="360" width="160" height="40" as="geometry" />
        </mxCell>
        <mxCell id="fY-Wzga6seKQwhded4A5-7" value="BasketPage&lt;div&gt;&lt;b style=&quot;font-family: &amp;quot;Courier New&amp;quot;;&quot;&gt;&lt;font style=&quot;font-size: 10px;&quot;&gt;/basket&lt;/font&gt;&lt;/b&gt;&lt;br&gt;&lt;/div&gt;" style="rounded=1;whiteSpace=wrap;html=1;" vertex="1" parent="1">
          <mxGeometry x="-600" y="520" width="160" height="40" as="geometry" />
        </mxCell>
        <mxCell id="fY-Wzga6seKQwhded4A5-37" style="edgeStyle=orthogonalEdgeStyle;rounded=0;orthogonalLoop=1;jettySize=auto;html=1;exitX=1;exitY=0.5;exitDx=0;exitDy=0;entryX=0;entryY=0.5;entryDx=0;entryDy=0;" edge="1" parent="1" source="fY-Wzga6seKQwhded4A5-8" target="Fk8QGSgGJ1bhqam2HO4i-5">
          <mxGeometry relative="1" as="geometry" />
        </mxCell>
        <mxCell id="fY-Wzga6seKQwhded4A5-38" style="edgeStyle=orthogonalEdgeStyle;rounded=0;orthogonalLoop=1;jettySize=auto;html=1;exitX=1;exitY=0.5;exitDx=0;exitDy=0;entryX=0;entryY=0.5;entryDx=0;entryDy=0;" edge="1" parent="1" source="fY-Wzga6seKQwhded4A5-8" target="fY-Wzga6seKQwhded4A5-5">
          <mxGeometry relative="1" as="geometry" />
        </mxCell>
        <mxCell id="fY-Wzga6seKQwhded4A5-39" style="edgeStyle=orthogonalEdgeStyle;rounded=0;orthogonalLoop=1;jettySize=auto;html=1;exitX=1;exitY=0.5;exitDx=0;exitDy=0;entryX=0;entryY=0.5;entryDx=0;entryDy=0;" edge="1" parent="1" source="fY-Wzga6seKQwhded4A5-8" target="Fk8QGSgGJ1bhqam2HO4i-16">
          <mxGeometry relative="1" as="geometry" />
        </mxCell>
        <mxCell id="fY-Wzga6seKQwhded4A5-8" value="SearchPage&lt;div&gt;&lt;b style=&quot;font-family: &amp;quot;Courier New&amp;quot;;&quot;&gt;&lt;font style=&quot;font-size: 10px;&quot;&gt;/search&lt;/font&gt;&lt;/b&gt;&lt;br&gt;&lt;/div&gt;" style="rounded=1;whiteSpace=wrap;html=1;" vertex="1" parent="1">
          <mxGeometry x="-600" y="200" width="160" height="40" as="geometry" />
        </mxCell>
        <mxCell id="fY-Wzga6seKQwhded4A5-14" value="if ticket add to basket" style="text;strokeColor=none;align=center;fillColor=none;html=1;verticalAlign=middle;whiteSpace=wrap;rounded=0;" vertex="1" parent="1">
          <mxGeometry x="-290" y="510" width="130" height="30" as="geometry" />
        </mxCell>
        <mxCell id="fY-Wzga6seKQwhded4A5-29" value="on log out" style="text;strokeColor=none;align=center;fillColor=none;html=1;verticalAlign=middle;whiteSpace=wrap;rounded=0;" vertex="1" parent="1">
          <mxGeometry x="-460" y="90" width="60" height="30" as="geometry" />
        </mxCell>
        <mxCell id="fY-Wzga6seKQwhded4A5-42" value="AccountRatingsPage&lt;div&gt;&lt;b style=&quot;font-family: &amp;quot;Courier New&amp;quot;;&quot;&gt;&lt;font style=&quot;font-size: 10px;&quot;&gt;/account/ratings&lt;/font&gt;&lt;/b&gt;&lt;br&gt;&lt;/div&gt;" style="rounded=1;whiteSpace=wrap;html=1;" vertex="1" parent="1">
          <mxGeometry x="-360" y="-120" width="160" height="40" as="geometry" />
        </mxCell>
      </root>
    </mxGraphModel>
  </diagram>
</mxfile>
